<svg width="1268" height="226" viewBox="0 0 1268 226" fill="none" xmlns="http://www.w3.org/2000/svg">
<path d="M344.49 66.9752H360.513L390.315 121.132L419.476 66.9752H435.499V157.984H417.874V100.303L398.647 134.912C397.365 137.155 396.083 139.078 394.801 140.039C393.519 141 391.917 141.641 390.315 141.641H385.508L362.435 100.623V158.305H344.81V67.2956L344.49 66.9752Z" fill="white"/>
<path d="M517.536 136.834H483.567L475.556 157.984H456.97L492.54 66.9752H500.551C506.32 66.9752 509.845 69.5388 512.088 74.6661L544.454 157.664H525.867L517.856 136.514L517.536 136.834ZM488.374 121.773H512.729L500.551 89.0866L488.374 121.773Z" fill="white"/>
<path d="M565.924 66.9752H614.313C622.325 66.9752 628.413 69.2184 633.22 73.3843C638.027 77.5502 640.27 83.3184 640.27 90.048V99.0207C640.27 103.507 638.988 107.353 636.425 110.878C633.861 114.082 630.015 116.646 625.209 118.568C628.093 120.491 630.015 122.734 631.618 124.978C632.9 127.221 634.502 130.425 635.784 134.591L643.154 157.664H624.568L617.838 136.194C616.556 132.348 615.275 129.784 613.031 127.862C611.109 125.939 608.545 124.978 605.661 124.978H583.87V157.664H565.924V66.6547V66.9752ZM610.788 109.916C614.313 109.916 617.197 108.955 619.44 107.032C621.363 105.109 622.645 102.546 622.645 99.3412V91.0093C622.645 88.4457 622.004 86.523 620.402 84.9207C618.8 83.3184 616.877 82.6775 614.313 82.6775H584.19V109.916H611.109H610.788Z" fill="white"/>
<path d="M668.15 66.9752H686.095V157.984H668.15V66.9752Z" fill="white"/>
<path d="M721.345 150.934C715.898 145.487 713.334 138.116 713.334 128.503H730.959C730.959 132.989 732.241 136.514 734.484 139.078C736.727 141.641 739.932 142.923 744.098 142.923H758.518C762.364 142.923 765.568 142.282 767.811 140.68C770.054 139.078 771.336 136.834 771.336 134.271V129.784C771.336 125.619 768.132 123.055 762.043 121.773L738.009 117.607C730.318 116.325 724.229 113.762 720.384 110.237C716.218 106.712 714.295 101.905 714.295 96.1366V88.7661C714.295 84.2798 715.577 80.1138 718.141 76.5888C720.704 73.0638 724.229 70.5002 728.716 68.5775C733.202 66.6547 738.65 65.6934 744.418 65.6934H759.159C764.927 65.6934 769.734 66.9752 774.22 69.2184C778.707 71.4616 781.911 74.6661 784.154 79.1525C786.398 83.3184 787.68 88.1252 787.68 93.8934H770.054C770.054 90.3684 769.093 87.4843 767.17 85.2411C765.248 82.9979 762.684 82.0366 759.159 82.0366H744.418C740.893 82.0366 738.009 82.6775 735.766 84.2798C733.523 85.882 732.561 87.8048 732.561 90.3684V93.8934C732.561 98.3798 735.445 100.943 741.534 101.905L765.248 106.071C773.259 107.353 779.027 109.916 783.193 113.441C787.359 116.966 789.282 121.453 789.282 126.9V135.553C789.282 140.039 788 144.205 785.436 147.73C782.873 151.255 779.348 154.139 774.861 156.062C770.375 157.984 764.927 158.946 758.839 158.946H743.777C734.163 158.946 726.793 156.382 721.345 150.934Z" fill="white"/>
<path d="M818.123 154.78C815.88 152.537 814.598 149.653 814.598 145.807V66.9752H883.816V82.6775H832.223V103.828H879.65V119.53H832.223V142.603H883.816V158.305H827.095C823.25 158.305 820.366 157.023 818.123 154.78Z" fill="white"/>
<path d="M912.657 154.78C910.414 152.537 909.132 149.653 909.132 146.128V67.2956H927.078V142.603H976.428V158.305H921.63C917.784 158.305 914.9 157.344 912.337 155.1L912.657 154.78Z" fill="white"/>
<path d="M1011.04 149.653L979.632 66.9752H998.219L1022.25 135.232L1046.29 66.9752H1064.87L1029.94 157.984H1021.61C1016.48 157.984 1012.96 155.1 1010.72 149.653H1011.04Z" fill="white"/>
<path d="M1128.32 136.834H1094.36L1086.34 157.984H1067.76L1103.33 66.9752H1111.34C1117.11 66.9752 1120.63 69.5388 1122.88 74.6661L1155.24 157.664H1136.66L1128.64 136.514L1128.32 136.834ZM1098.84 121.773H1123.2L1111.02 89.0866L1098.84 121.773Z" fill="white"/>
<path d="M1176.39 66.9752H1192.41L1222.22 121.132L1251.38 66.9752H1267.4V157.984H1249.78V100.303L1230.55 134.912C1229.27 137.155 1227.99 139.078 1226.7 140.039C1225.42 141 1223.82 141.641 1222.22 141.641H1217.41L1194.34 100.623V158.305H1176.71V67.2956L1176.39 66.9752Z" fill="white"/>
<path d="M187.466 0H37.8137C16.9841 0 0 16.9841 0 37.8137V187.466C0 208.296 16.9841 225.28 37.8137 225.28H187.466C208.296 225.28 225.28 208.296 225.28 187.466V37.8137C225.28 16.9841 208.296 0 187.466 0ZM37.8137 215.346C22.4319 215.346 9.93412 202.848 9.93412 187.466V144.525L70.5002 205.091C74.6661 209.257 78.832 212.462 83.6388 215.346H37.8137ZM85.882 189.389L9.61366 113.121V37.8137C9.61366 22.1114 22.1114 9.61366 37.8137 9.61366H73.0638C68.5774 12.1773 64.4115 15.3819 60.5661 18.9069C33.3274 45.1842 33.6478 88.7661 60.2456 115.364L130.105 185.223C134.271 189.389 139.078 192.273 144.205 194.196C126.58 206.694 101.905 205.091 86.2025 189.389H85.882ZM98.7002 122.734C91.9707 116.005 91.9707 105.43 98.7002 98.7002C105.43 91.9707 116.325 91.9707 122.734 98.7002L169.521 145.487C172.725 148.691 174.648 153.178 174.648 157.664C174.648 162.15 173.046 166.316 169.521 169.841C162.791 176.571 152.216 176.571 145.487 169.841L98.7002 123.055V122.734ZM215.346 187.466C215.346 202.848 202.848 215.346 187.466 215.346H152.216C157.023 212.462 161.509 209.257 165.355 205.091L185.223 185.223C200.605 169.841 200.605 145.166 185.223 129.784L138.437 82.9979C123.055 67.6161 98.3798 67.6161 82.9979 82.9979C78.832 87.1639 75.6275 92.2911 73.7047 97.7389C57.682 80.1138 58.0024 53.1956 74.6661 35.891C92.2911 17.625 121.453 17.9455 139.398 35.891L215.346 111.839V187.466ZM215.346 80.7547L154.78 19.8682C150.614 15.7023 146.448 12.4978 141.641 9.61366H187.466C202.848 9.61366 215.346 22.1114 215.346 37.4933V80.4343V80.7547Z" fill="white"/>
</svg>
